<svg xmlns="http://www.w3.org/2000/svg" width="240" height="324" fill="none" id="bald-man-holding-phone"><path fill="#fff" fill-rule="evenodd" d="M181.079 176.597c-1.842-7.143-3.535-10.172-6.806-12.655-3.06-2.322-7.527-4.273-14.044-5.698-6.788-1.187-6.98-4.716-8.682-10.387-.497-1.705-2.957-2.159-4.019-.93a5.09 5.09 0 0 0-.467-.443c.144-.813-1.039-3.144-1-3.922.413-8.118-2.242-12.195-8.869-13.71-1.441-.33-11.229-.524-12.634-.136-6.143 1.699-12.19 7.092-11.265 13.589-1.928 2.521-3.815 4.059-6.79 4.871-6.62.841-13.24 1.589-19.862 2.229-12.963 2.033-25.116 8.896-33.423 18.904-.766.924-.988 2.178-.311 3.163-.53 2.27-3.512 7.774-1.166 9.33-3.858 9.228-12.734 27.066-12.75 32.163-.07 21.408 2.242 49.275 23.363 61.122.846.832.967 1.752 1.333 2.989.929 3.898 4.301 6.683 7.993 6.456 18.183.404 35.796-1.815 53.98-1.922 8.019-.047 17.663 1.15 24.629 1.947 6.967.798 13.999.093 20.684-1.947.564.888 1.703 1.405 2.86 1.15 6.93-1.377 12.534-5.649 17.416-10.318 1.491-2.714 7.317-10.447 5.001-13.138 2.099-8.876 1.99-18.412-1.74-26.863.529-1.549-.435-3.252 0-4.851.315-1.158 1.121-1.637 1.527-2.783.571-1.613-.05-3.778-.693-5.424-.264-.82.485-1.703.693-2.54.986-3.949-1.273-3.601-2.901-6.241.024-.008.448-1.892.446-1.883.249-1.345-.375-3.069-.92-4.192-.369-.759-1.157-1.234-1.941-1.147.789-2.68 1.787-4.91 2.861-7.493 1.898-4.551 4.301-8.91 7.027-13.03 1.117-1.687-.383-3.641-2.189-3.756a110.404 110.404 0 0 1-17.341-2.504Z" clip-rule="evenodd"></path><path fill="#000" fill-rule="evenodd" d="M164.013 211.018c-2.338-.918-4.857-1.425-7.388-1.621 1.363-.239 2.73-.47 4.107-.588.962-.082 1.853-.074 2.575.655.482.486.708 1.112 1.025 1.687a6.09 6.09 0 0 0-.319-.133Zm25.103-8.577c-3.83.195-7.665 1.106-11.13 2.756-1.417.676-2.702 1.653-3.078 3.259-.19.82-.144 1.668-.042 2.496.076.628.095 1.429.64 1.854.093.072.192.127.296.167a25.986 25.986 0 0 0-3.577 1.984c-.989.653-2.005 1.659-2.461 2.794a10.73 10.73 0 0 0-.114-.363c-.778-2.299-1.976-4.183-3.862-5.449.334-.15.564-.505.456-.995-.448-2.048-2.339-3.828-4.475-3.701-2.338.137-4.85.989-6.965 2.065a35.231 35.231 0 0 0-2.301.027c-.131.005-.124.182 0 .197.617.078 1.234.165 1.851.266 1.466.235 2.928.533 4.358.903 1.716.444 3.49.889 5.094 1.665 3.11 1.507 5.035 5.447 4.639 8.875-.065.562-.283 2.261-1.062 2.086-.659-.148-.921-1.524-1.152-2.033-.617-1.353-1.728-2.237-3.061-2.835-1.565-.703-3.241-1.179-4.863-1.732-.919-.315-1.838-.631-2.759-.943-.943-.323-1.838-.77-2.842-.543-.606.137-.676.86-.336 1.274.518.632 1.287.818 2.033 1.078l2.949 1.027c1.519.528 3.11.974 4.59 1.621l-.046.106c-.12-.034-.262.086-.239.234.222 1.368.531 2.949.188 4.318-.27 1.087-1.223 2.289-2.461 1.97a.659.659 0 0 0 .135-.767c-.49-1.048-6.912-5.187-7.485-3.65-.019.055.04.095.087.087.488-.102 1.305.731 1.696.995.564.381 1.137.752 1.695 1.143a36.6 36.6 0 0 1 1.787 1.338c.456.364.801.742 1.324.926a1.11 1.11 0 0 0-.585.685c-.236.809-.693 1.496-1.485 1.853-.83.372-1.766.138-2.641.229-1.191.12-2.231.687-3.099 1.496-1.823 1.703-2.738 4.705-5.288 5.51-1.523.48-3.213.177-4.756-.04-1.721-.244-3.399-.436-5.133-.182-1.661.243-3.231.818-4.748 1.519-1.421.658-2.993 1.402-4.255 2.382-.259-.801-.521-1.593-.72-2.411a28.76 28.76 0 0 1-.784-5.891c-.057-1.891.049-3.791.211-5.674.081-.941.208-1.877.288-2.818.021-.236.063-.49.095-.743 2.252-1.33 4.618-2.348 7.003-3.397l.019-.008a7.02 7.02 0 0 1 .22-.097.035.035 0 0 0-.008-.013c.272-.167.462-.389.576-.639 3.438-2.28 6.311-5.393 8.453-9.024.898-1.522 1.762-3.101 2.937-4.434 1.251-1.423 2.736-2.268 4.574-2.708 2.148-.515 4.363-.824 6.564-.999 1.202-.095 2.546-.243 3.856-.237.912.006 1.806.084 2.626.311 1.214.333 1.924 1.257 2.687 2.191a66.021 66.021 0 0 1 2.134 2.729c.644.885 1.253 1.8 1.781 2.76.317.575.61 1.167.857 1.777.087.216.201.461.254.685.053.226-.044.465.209.465-1.046.015-1.035 1.687.004 1.625 4.069-.236-1.759-8.183-2.611-9.29-1.206-1.569-2.451-3.615-4.382-4.344a1.393 1.393 0 0 0-.084-.029c.562-.533 1.006-1.171 1.43-1.82.438-.668.959-1.433 1.103-2.226.091-.504-.537-.792-.834-.35-.434.644-.643 1.46-.966 2.168-.33.719-.731 1.397-1.048 2.122-.763-.235-1.586-.342-2.425-.378 1.058-1.433 2.866-4.198 3.084-4.553a105.413 105.413 0 0 0 2.865-5.036c.984-1.839 1.828-3.754 2.77-5.614.534-1.054 1.073-2.117 1.667-3.14.205-.351.424-.702.674-1.021.048-.063.11-.116.167-.176l.171-.097c.342-.196.462-.653.703-.942.385-.467.837-.522 1.416-.529 1.233-.013 2.472.036 3.703.07a218.393 218.393 0 0 1 7.067.311c2.63.156 5.259.361 7.88.613 2.32.221 4.64.583 6.962.756-3.144 7.472-6.63 14.808-10.577 21.888a.911.911 0 0 0-.088.215Zm-17.442 19.248c-.507.232-1 .522-1.458.852a8.7 8.7 0 0 0 .074-1.598c.378.405.862.638 1.384.746Zm21.644-12.852a.105.105 0 0 0-.086.059c-.702 1.447-.408 3.064.737 4.199.6.592 1.908 1.26 1.865 2.232-.036.786-.891 1.446-1.257 2.095-.34.604-.466 1.268-.194 1.923.349.839 1.323 1.173 1.656 1.997.423 1.046-.264 2.308-.745 3.219-.448.843-1.027 1.687-1.412 2.578-2.575 1.334-4.88 3.38-6.862 5.458-2.169 2.272-4.031 4.945-7.476 4.878a.86.86 0 0 0-.763.426 67.46 67.46 0 0 1-2.88.068 139.62 139.62 0 0 1-5.055-.061c-.119-.408-.032-.962-.038-1.306-.021-1.11-.032-2.217-.078-3.327l-.038-.928c.606 1.097 1.789 1.596 3.137 1.52 2.167-.127 4.348-.482 6.494-.801 1.13-.167 2.259-.357 3.385-.56.925-.165 2.231-.123 2.877-.865.152-.173.161-.49-.078-.606-.64-.315-1.044-.14-1.747-.004a157.337 157.337 0 0 1-7.555 1.261c-.947.133-1.895.264-2.844.368-.828.089-1.762.209-2.429-.414-1.346-1.26-.592-3.371.26-4.644a.08.08 0 0 0 .01-.069c.803-.189 1.604-.408 2.402-.563a97.99 97.99 0 0 1 4.631-.767c3.182-.454 6.385-.754 9.583-1.056.792-.077.801-1.323 0-1.249-4.595.42-9.213.819-13.747 1.705-1.137.22-2.265.469-3.387.75-.53.131-1.098.336-1.654.343-.034 0-.068 0-.101-.003-1.088-.033-1.247-.965-.649-1.741.074-.095.15-.19.228-.281 1.057-1.26 2.373-2.101 3.729-2.972 1.519-.207 3.034-.668 4.521-1.006 3.672-.837 7.344-1.674 11.018-2.508.72-.165.414-1.273-.306-1.11l-8.367 1.896-4.081.926c-.816.183-1.834.553-2.793.687-.473.065-.932.073-1.346-.024-1.337-.317-1.405-1.989-.828-2.982.646-1.116 1.868-1.813 2.951-2.445 1.878-1.097 3.877-1.886 5.829-2.794l1.04-.229c2.015-.444 4.318-.661 6.215-1.475.568-.241.258-1.137-.304-1.124-1.473.032-3.013.556-4.452.866-1.557.338-3.116.674-4.673 1.01-.156.034-1.081.33-1.221.265-.089-.043-.12-.351-.15-.554-.095-.668-.165-1.369-.061-2.04.228-1.502 1.481-2.208 2.748-2.785 2.823-1.283 5.918-2.086 8.998-2.407a29.82 29.82 0 0 1 2.134-.144c.839-.026 1.53-.173 1.954.653.668 1.302 1.036 2.976 1.255 4.462Zm-3.92 47.204c-.615-2.128-.448-4.4-.869-6.571a35.575 35.575 0 0 0-.838-3.323c-.262-.883-.698-1.823-.747-2.744-.003-.062.069-.097.119-.069.868.497 1.534 1.572 2.029 2.415a16.166 16.166 0 0 1 1.409 3.177c.728 2.214 1.325 4.884.387 7.115-.279.664-1.26.797-1.49 0Zm-19.006-28.185c.519-.051 1.039-.15 1.559-.266-.581.566-1.118 1.249-1.416 2.006a31.48 31.48 0 0 0-.184-1.738c.013 0 .028 0 .041-.002Zm-4.995 44.293c-.917-.64-1.585-1.534-2.362-2.324-.764-.776.431-1.972 1.195-1.195.663.673 1.239 1.514 2.02 2.059.375.262.549.735.303 1.157-.218.371-.782.564-1.156.303Zm-5.111-24.59c1.673-.724 3.318-1.512 5.069-2.033 1.046-.312 1.489 1.32.449 1.63-1.612.48-3.125 1.196-4.665 1.863-.989.427-1.849-1.03-.853-1.46Zm-17.669-.507c-.409-1.009 1.227-1.445 1.63-.449.464 1.146.996 2.263 1.46 3.409.409 1.009-1.226 1.445-1.63.449-.464-1.146-.996-2.262-1.46-3.409Zm-17.439 20.167c-.272.364-.727.561-1.156.304-.36-.216-.579-.789-.303-1.157.805-1.074 1.621-2.135 2.566-3.093.765-.776 1.96.42 1.195 1.196-.843.855-1.582 1.791-2.302 2.75Zm-2.493-113.155c.775.53 1.455 1.174 2.118 1.837.77.77-.425 1.966-1.196 1.195-.558-.558-1.121-1.125-1.775-1.572-.378-.258-.548-.738-.304-1.157.219-.374.78-.56 1.157-.303Zm25.371 27.209c-.439.878-.833 1.74-.858 2.738-.027 1.088-1.717 1.089-1.69 0 .032-1.307.514-2.44 1.089-3.592.486-.975 1.943-.117 1.459.854Zm9.309-21.852c.909-.606 1.754.859.853 1.46l-2.19 1.461c-.909.605-1.754-.86-.853-1.46l2.19-1.461Zm-40.376 38.206c-.156 1.075-1.784.615-1.63-.449.237-1.645.527-3.268.973-4.87.292-1.048 1.922-.6 1.63.45-.446 1.602-.736 3.225-.973 4.869Zm-5.926 19.368c-1.088-.023-1.088-1.714 0-1.69.984.02 1.952.28 2.902.517 1.056.264.606 1.894-.45 1.63-.802-.201-1.62-.439-2.452-.457Zm-2.188 39.016c-.373.182-.757.345-1.135.518a2282.912 2282.912 0 0 0-6.989 3.217c-3.148 1.458-6.32 2.864-9.476 4.306-3.218 1.47-6.427 2.96-9.633 4.458-1.51.705-3.031 1.385-4.55 2.072-1.298.587-2.903 1.613-4.329 1.71-.073.005-.098-.088-.056-.135.539-.613 1.398-.969 2.106-1.368.722-.407 1.459-.789 2.192-1.178 1.528-.81 3.059-1.613 4.602-2.395 3.086-1.562 6.179-3.114 9.272-4.663 3.155-1.58 6.305-3.171 9.488-4.695a1540.896 1540.896 0 0 1 6.938-3.304c.351-.166.699-.346 1.058-.495.478-.197.84-.157 1.333-.279.802-.198 1.15.823.534 1.268-.508.366-.775.68-1.355.963Zm-11.283 17.337c-.174-.422.19-.935.59-1.04.48-.127.865.165 1.04.59a9.535 9.535 0 0 0 1.973 3.036c.759.781-.436 1.977-1.195 1.196-1.065-1.096-1.83-2.375-2.408-3.782Zm-8.3-27.14c-.771-.771.424-1.966 1.194-1.195l2.19 2.191c.771.771-.425 1.966-1.195 1.195l-2.19-2.191Zm-22.474-3.572c-1.574.462-3.411.887-4.485 2.23-.052.066-.14-.018-.109-.084 1.375-2.85 5.317-3.85 8.046-4.849 1.93-.706 3.91-1.292 5.908-1.816-.2-2.279.351-4.722.542-6.99.205-2.422.37-4.85.456-7.279.087-2.478.109-4.973.027-7.452-.081-2.469-.401-4.909-.542-7.37-.013-.238.318-.249.39-.053.829 2.284 1.183 4.814 1.453 7.223.278 2.481.37 4.955.335 7.45-.037 2.566-.186 5.126-.39 7.683-.098 1.212-.21 2.423-.317 3.634-.08.925-.118 1.842-.307 2.737 1.205-.296 2.412-.575 3.616-.847 3.838-.867 7.692-1.671 11.514-2.608 1.876-.459 3.725-1.01 5.593-1.499 1.758-.461 3.614-1.019 5.42-1.225.644-.073.726.809.3 1.108-1.468 1.031-3.417 1.748-5.112 2.325-1.701.579-3.47.996-5.213 1.425-3.636.894-7.307 1.626-10.972 2.388-3.66.761-7.327 1.516-10.945 2.455-1.743.452-3.48.906-5.207 1.414Zm-8.63-45.234c-.94.553-1.79-.909-.852-1.46 1.227-.72 2.534-1.262 3.852-1.79 1.012-.405 1.447 1.231.45 1.631-1.185.474-2.347.972-3.45 1.619Zm-3.407 62.816c-.943.548-1.793-.914-.852-1.459 1.32-.767 2.768-1.278 4.137-1.948.974-.478 1.83.981.853 1.46-1.37.67-2.816 1.181-4.138 1.947Zm-1.532-35.657c.912.867 2.13 1.275 3.278 1.73 1 .397.562 2.031-.45 1.631-1.43-.568-2.887-1.086-4.023-2.166-.79-.751.407-1.945 1.195-1.195Zm10.092-48.426c1.003.394.564 2.028-.449 1.631-1.123-.441-2.284-.777-3.407-1.218-1.003-.393-.564-2.028.45-1.63 1.123.441 2.283.776 3.406 1.217Zm17.804-19.234c1.066-.18 1.52 1.449.45 1.63-1.328.224-2.635.487-3.894.974-1.017.394-1.453-1.242-.45-1.63 1.26-.488 2.567-.75 3.894-.974Zm5.883 46.831c-.977-.48-.12-1.938.853-1.46 1.025.504 2.087.894 3.206 1.132 1.065.227.611 1.857-.45 1.631-1.258-.268-2.456-.736-3.609-1.303Zm5.557-26.379c1.052-.289 1.497 1.343.449 1.63-1.843.505-3.741.768-5.598 1.217-1.058.257-1.506-1.374-.45-1.63 1.858-.45 3.755-.712 5.599-1.217Zm23.57-8.279c1.07.198.614 1.828-.449 1.631-1.132-.21-2.279-.213-3.427-.214-1.089 0-1.087-1.691 0-1.69 1.304 0 2.591.036 3.876.273Zm76.872 8.834a217.145 217.145 0 0 0-8.297-.634l-.385-.022c-.014-.029-.033-.057-.052-.086-.904-1.328-1.57-2.655-2.147-4.155-.551-1.429-1.086-2.902-1.935-4.191-.969-1.469-2.276-2.619-3.71-3.615a17.057 17.057 0 0 0-2.414 1.996c-.777.763-1.972-.432-1.195-1.196a18.56 18.56 0 0 1 2.096-1.779c-.854-.52-1.726-1.008-2.577-1.493a127.586 127.586 0 0 0-9.784-5.041c-1.548-.717-3.116-1.353-4.694-1.997-.85-.347-1.688-.793-2.537-1.194.061-.601-.119-1.273-.579-1.668-.34-.29-.604-.397-1.01-.602-.091-.032-.146-.051-.171-.062.019.005.074.021.164.051.216.1.233.07.051-.087-.01-.342-.684-1.065-.838-1.418-.537-1.211-.704-2.492-1.496-3.595a4.162 4.162 0 0 0-4.636-1.579c-.177-1.828-.223-3.736-.912-5.368-.019-.044-.08-.063-.108-.015-.718 1.224-.779 2.587-.834 3.999a23.531 23.531 0 0 0 .171 3.997 6.9 6.9 0 0 1-.338.243 7.424 7.424 0 0 1-1.75.841c-1.174.389-2.406.558-3.638.617-3.179.152-6.456-.169-9.583-.714-3.162-.552-8.011-1.38-10.825-2.964-1.857-1.043-3.57-2.318-5.307-3.552.629-2.029.79-4.21.156-5.924-.076-.205-.397-.244-.458 0-.397 1.635-.514 3.28-1.042 4.897l-.025.071-.494-.331c-.381-.252-.898-.064-1.127.295-3.648 5.751-9.426 6.081-15.494 7.108-6.64 1.125-13.314 2.338-19.698 4.538-6.106 2.105-11.941 5.17-16.564 9.748a38.465 38.465 0 0 0-2.949 3.293c.894.113 1.78.288 2.655.563 1.036.326.59 1.958-.45 1.631-1.123-.354-2.26-.529-3.409-.616-3.14 4.299-5.59 9.173-7.707 13.97-4.063 9.198-6.707 18.994-7.923 28.967.668-.4 1.348-.782 2.045-1.137.968-.492 1.822.967.853 1.46a35.144 35.144 0 0 0-3.136 1.807 105.576 105.576 0 0 0-.51 13.145c.247 10.458 1.659 21.222 4.85 31.2 1.566 4.897 3.641 9.754 6.732 13.892 1.398 1.874 2.987 3.565 4.859 4.975a19.29 19.29 0 0 0 2.877 1.811c1.304.668 3.002.888 4.127 1.833.37.311.654.72.87 1.183-.125.879-.14 1.761.101 2.64a.942.942 0 0 0 .54.607c.003.076.003.15.003.221 0 .034.051.043.057.009l.032-.199a.798.798 0 0 0 .258.041c3.209.012 6.422-.067 9.635-.176-.248-.761-.517-1.516-.776-2.278-.35-1.034 1.282-1.474 1.63-.449.302.89.619 1.773.9 2.666 3.443-.128 6.885-.282 10.32-.395 7.308-.244 14.614-.324 21.924-.478 11.351-.241 22.785-.734 34.155-.252.393-.834.833-1.65 1.25-2.473.492-.972 1.95-.116 1.46.853-.291.572-.591 1.137-.876 1.708 2.302.12 4.603.278 6.898.494 3.917.367 7.796 1.02 11.709 1.426 3.978.414 7.869.341 11.816-.317.71-.118 1.128-.547 1.301-1.08a.027.027 0 0 0 .015-.013c.203-.236.393-.433.589-.604.235-.152.488-.281.786-.395a8.11 8.11 0 0 1 1.722-.427c.647-.097 1.302-.106 1.948-.186.545-.07 1.078-.174 1.61-.3a16.191 16.191 0 0 0 2.77-.922c.788-.344 1.499-.839 2.171-1.378 1.391-1.016 2.595-2.314 3.647-3.663a27.446 27.446 0 0 0 1.713-2.457c.913-1.476 1.69-3.008 2.476-4.553.286-.458.546-.927.784-1.405-1.536-.453-3.087-.822-4.715-.848-1.089-.018-1.088-1.709 0-1.691 1.867.03 3.634.466 5.389.986.085-.227.167-.456.243-.688.209-.484.383-.98.526-1.483l.254-.685c.19-.791.38-1.583.572-2.376.383-1.268.685-2.555.907-3.859.185-.858.329-1.723.426-2.598.296-2.119.537-4.235.554-6.378a44.199 44.199 0 0 0-.254-3.952 30.002 30.002 0 0 0-.304-2.661c-.182-1.311-.361-2.608-.663-3.902l-.678-2.625a50.572 50.572 0 0 0-1.997-5.36c-.042-.109-.256-.35-.384-.353-.098-.002-.233.087-.189.206l.013.033c-.044-.099-.086-.201-.131-.3-.038-.093-.186-.279-.3-.277-.006 0-.013 0-.021.002a.485.485 0 0 0 .085-.08c.758-.898 1.25-2.08 1.793-3.119.45-.859.875-1.763.997-2.733.108-.852-.038-1.691-.572-2.38-.609-.784-1.754-1.152-1.118-2.285.723-1.289 1.786-2.407.727-3.872-.539-.746-1.392-1.156-2.026-1.805-.729-.75-1.076-1.754-1.056-2.779.044.026.103.013.124-.051.613-1.851.169-3.884-.458-5.687-.342-.978-1.067-1.247-1.91-1.295 3.651-7.133 7.067-14.381 10.111-21.795.102-.243.201-.486.3-.729.148-.364-.165-.847-.526-.928-2.632-.577-5.374-.761-8.055-1.014Z" clip-rule="evenodd"></path><path fill="#fff" fill-rule="evenodd" d="M163.535 85.432c-1.912-8.064-6.092-15.568-12.785-21.633-20.14-19.919-57.125-9.107-56.957 20.91-.723 3.505-1.016 7.11-.777 10.685.1 1.526.76 3.655-.127 5.028-2 2.568-3.163 4.461-2.482 7.878.569 2.983 2.598 5.097 5.337 6.22 1.642.472 3.201 1.499 3.81 3.065 3.656 6.696 6.364 12.266 12.128 16.83 1.488 1.175 16.742 8.222 21.769 8.222 14.715 0 33.261-5.333 33.569-21.776.053-3.611-.58-7.265-.978-10.848-.967-8.177-.626-16.65-2.507-24.581Z" clip-rule="evenodd"></path><path fill="#000" fill-rule="evenodd" d="M163.204 81.4c.005-.1.148-.123.175-.024.547 1.94.857 3.918 1.285 5.89a125.1 125.1 0 0 1 1.124 5.719c.611 3.615 1.126 7.24 1.605 10.875l.119.908c.832 6.395 2.206 13.057 1.004 19.489-1.025 5.489-4.463 9.913-8.893 13.156-4.194 3.07-9.28 5.041-14.33 6.161-5.42 1.203-11.844 1.562-16.254-2.414-1.765-1.592.641-4.751 2.556-3.314 4.497 3.373 10.218 2.379 15.293 1.036l.153-.04c4.454-1.187 8.937-2.986 12.473-6.02 3.909-3.356 5.842-8.012 6.065-13.119.126-2.869-.142-5.735-.43-8.588l-.032-.317c-.331-3.262-.679-6.522-.999-9.785-.293-2.976-.545-5.97-.678-8.958l-.063-1.508c-.129-3.04-.304-6.123-.173-9.148Zm-52.741-25.256a38.784 38.784 0 0 1 23.872-3.896c7.829 1.23 15.014 5.271 20.385 11.066 2.622 2.83 4.949 6.102 6.436 9.678.739 1.776 1.318 3.629 1.626 5.532.158.978.314 1.992.344 2.984.027.918-.243 1.78-.211 2.713.005.146-.218.174-.252.034-.255-1.04-.868-1.828-1.252-2.816a38.984 38.984 0 0 0-.946-2.178l-.285-.616c-.827-1.79-1.817-3.505-2.796-5.215a36.976 36.976 0 0 0-7.461-9.214c-5.199-4.637-11.869-7.63-18.83-8.169-7.226-.56-14.554 1.164-20.725 4.98-6.17 3.817-10.836 9.75-13.258 16.58a36.619 36.619 0 0 0-2.055 10.69c-.079 1.848-.005 3.712.125 5.557l.064.88c.075 1.055.127 2.106-.03 3.135 1.112-.347 2.279-.49 3.45-.319 1.74.255 2.779.969 3.56 2.524a.09.09 0 0 1-.122.122c-1.012-.505-2.65-.24-3.72.025-1.116.276-2.12.755-3.068 1.403-1.752 1.199-3.127 3.055-3.464 5.185-.326 2.058.519 4.142 1.937 5.616.73.76 1.603 1.417 2.58 1.826 1.186.497 2.36.481 3.409 1.302.649.507.492 1.374.052 1.937 2.213 2.428 4.176 5.084 6.39 7.522a125.97 125.97 0 0 1 3.026 3.427l.367.439c.982 1.185 2.543 2.437 2.992 3.928.279.927-.714 2.139-1.717 1.717-1.539-.648-2.638-2.335-3.677-3.629l-.068-.083a35.534 35.534 0 0 1-2.944-4.239l-.291-.489c-1.601-2.693-3.188-5.486-4.209-8.445-.067.07-.138.133-.214.186-1.47 1.046-3.608.242-5.076-.437a10.806 10.806 0 0 1-3.648-2.768c-2.155-2.529-3.148-5.803-2.428-9.084.61-2.779 2.535-5.483 5.06-6.889-1.166-1.342-1.648-3.151-1.97-4.92-.41-2.258-.491-4.572-.38-6.861.222-4.56 1.395-9.056 3.21-13.232 3.244-7.471 8.98-13.722 16.212-17.488Zm-15.402 49.86c1.536-.287 2.967-.357 4.449.293 1.607.706 2.737 1.871 3.789 3.236 1.196 1.552-1.87 3.248-2.643 1.187l-.022-.063c-.207-.611-.578-1.2-1.048-1.743-.14.216-.33.406-.55.515-.269.132-.678.04-.743-.302-.071-.381.008-.841.227-1.163l.03-.044c-1.065-.858-2.347-1.485-3.489-1.686-.114-.021-.113-.208 0-.23Z" clip-rule="evenodd"></path><path fill="#000" fill-rule="evenodd" d="M132.112 117.319c.044-.041.114-.056.168-.022.914.578 1.022 2.523 1.033 3.646.378.098.751.21 1.105.289.75.166 1.504.31 2.257.463l.564.117c1.886.397 3.807.691 5.728.839 1.865.142 3.785.195 5.644-.046a14.93 14.93 0 0 0 2.365-.506c.912-.272 1.638-.723 2.487-1.118 2.124-.99 3.904 1.91 1.86 3.183-1.755 1.092-4.149 1.486-6.175 1.655-2.07.173-4.132-.017-6.178-.345-2.211-.354-4.377-.898-6.474-1.687a22.523 22.523 0 0 1-2.583-1.181l-.228-.121-.431-.228c-.157 1.401-.609 2.754-1.156 4.054l-.012-.023c-.299 1.026-1.379 1.661-2.454 1.208-1.261-.532-1.357-1.927-.623-2.918l.035-.046c.863-1.11 1.403-2.488 1.873-3.801.241-.673.464-1.362.658-2.051.14-.498.145-.999.537-1.361Zm32.5-11.154c-.748 2.26-2.378 4.001-4.649 4.766-2.251.758-4.755.482-7.055.072a34.16 34.16 0 0 1-1.523-.304c.417.258.785.621 1.137 1.006.521.568.993 1.167 1.137 1.878.142.706-.082 1.243-.491 1.648-.628.623-1.642.959-2.501 1.145-1.923.415-3.849.351-5.762-.075-.489-.109-.82-.371-1.006-.713-.226-.415-.244-.932-.115-1.402.13-.47.41-.903.816-1.143.334-.198.753-.252 1.227-.094.953.317 1.899.527 2.906.552a11.165 11.165 0 0 0 1.999-.133c-.14-.187-.277-.378-.41-.571a14.75 14.75 0 0 1-1.545-2.807c-.1-.236-.192-.473-.28-.71l-.038-.103a5.645 5.645 0 0 1-1.557-2.042c-.974-2.17-.815-4.863-.224-7.116.474-1.806 1.519-3.476 2.9-4.61.241-.398.4-.639.595-.841.794-.826 1.902-1.384 2.983-1.723 2.414-.757 5.043-.214 7.089 1.228 1.89 1.332 3.369 3.328 4.168 5.549.757 2.103.905 4.41.199 6.543ZM131.73 92.43c2.871-.024 5.792.824 8.122 2.52 2.229 1.624 3.978 4.022 3.976 6.877-.002 2.781-1.487 5.514-3.135 7.667-1.85 2.416-4.266 3.581-7.305 3.608-1.58.014-3.171-.126-4.739-.318l-.842-.106c-1.158-.149-2.329-.326-3.427-.725-5.228-1.896-5.39-8.742-3.454-13.117 1.495-3.379 5.279-6.673 9.052-6.278a13.47 13.47 0 0 1 1.752-.128Zm4.849 3.22c-3.595-1.615-7.963-1.132-11.451.591-1.381 1.508-2.391 3.408-2.8 5.153-.436 1.862-.372 3.868.284 5.673.801 2.203 2.773 2.749 4.901 3.087l.825.13.347.052c2.09.312 4.376.555 6.385.165 2.239-.436 3.661-2.245 4.78-4.1l.052-.087c1.162-1.944 2.135-4.308 1.16-6.535-.829-1.894-2.639-3.302-4.483-4.13Zm21.22.562a4.842 4.842 0 0 0-3.973-.35c-.573.196-1.069.515-1.549.873l-.191.145c-.591.454-1.143.683-1.586 1.296l-.057.082c-.223.334-.614.468-.971.423-.415 1.145-.586 2.383-.59 3.602l.001.161.002.165c.027 1.441.278 3.203 1.411 4.169 1.033.881 2.598 1.092 3.996 1.215l1.076.089.287.022c1.472.102 3.086.067 4.32-.805 1.075-.759 1.582-2.048 1.713-3.321.311-3.008-1.21-6.282-3.889-7.766Zm-26.856.278c1.979-1.012 4.358-.758 6.035.51-.149.028-.296.066-.442.139-.381.19-.617.573-.707.98a.867.867 0 0 0 .59 1.04c.395.125.863.183 1.23-.057a1.08 1.08 0 0 0 .414-.5l.012-.03.016-.023.006-.01c.001-.004-.006.004-.017.02l.032-.078a.882.882 0 0 0 .042-.096c.022-.018.041-.038.061-.059.304.469.544.999.696 1.588.974 3.782-3.023 7.707-6.594 8.1a5.59 5.59 0 0 1-3.601-.807l.028-.037c.41.074.9-.11 1.049-.568.38-1.167-.01-2.533-1.282-2.915-.818-.245-1.656.026-2.241.586a6.45 6.45 0 0 1-.391-3.524c.295-1.724 1.334-3.276 2.951-3.993.788-.35 1.466-.423 2.113-.266Zm20.849 2.333.061-.095c.611-.942 1.781-2.097 2.993-1.78.17.045.337.117.487.21.666-.09 1.364.061 1.936.413l-.015.04a.929.929 0 0 0 .078.672c.116.228.282.444.506.575.153.09.334.136.511.133.26-.005.488-.12.676-.294a.807.807 0 0 0 .212-.376c.093.089.183.188.268.3 1.405 1.848 1.211 4.819-.437 6.466-.067.067-.138.127-.208.188a4.102 4.102 0 0 1-2.94 1.674 4.415 4.415 0 0 1-3.174-.918.697.697 0 0 0 .194-.151 2.062 2.062 0 0 0 .431-.704l.031-.08c.005-.015.052-.15.04-.126l-.003.005.016-.039c.158-.393.094-.842-.28-1.089l-.041-.026a.865.865 0 0 0-.426-.105c-.382-.467-.95-.574-1.483-.438l-.019-.151-.007-.075c-.413-1.37-.213-2.927.593-4.229Zm-18.337-13.79.137-.022c1.037-.15 1.742.023 2.417.91.321.422.222 1.06 0 1.492-.718 1.395-2.693 1.106-4.023 1.383-1.299.27-2.594.639-3.81 1.174a24.819 24.819 0 0 0-3.538 1.931c-1.027.669-1.958 1.673-3.131 2.061-.053.018-.116-.03-.113-.085.084-1.335 1.198-2.56 2.061-3.51.998-1.099 2.211-2.074 3.475-2.85a18.87 18.87 0 0 1 4.175-1.918 17.233 17.233 0 0 1 2.35-.567Zm15.797 1.811c1.306-1.91 4.552-1.544 6.467-1.033 2.401.64 5.003 1.933 6.687 3.806 1.508 1.677-.748 3.856-2.444 2.445l-.453-.376-.29-.238c-1.302-1.063-2.591-2.026-4.178-2.736-1.86-.83-3.745-1.236-5.712-1.679-.077-.017-.122-.122-.077-.189Z" clip-rule="evenodd"></path><path fill="#000" fill-rule="evenodd" d="M129.449 129.599c1.711-4.009 5.444-6.955 9.742-8.033 3.157-.788 6.469-.763 9.687-.45 1.685.163 3.494.296 5.082.923 1.357.535 2.462 1.546 3.294 2.733.989 1.407 1.662 3.017 2.135 4.667.067.235.13.471.189.709-.206 1.245-.642 2.305-1.795 3.088-1.125.764-2.467 1.077-3.805 1.188a6.182 6.182 0 0 1-.374-.194c-2.086-1.195-3.553-4.017-6.185-3.635-2.349.341-3.895 3.298-5.292 5.031-4.483.523-8.963-.825-12.611-3.39a7.45 7.45 0 0 1-.067-2.637m33.176-3.041a17.29 17.29 0 0 0-1.346-2.901 16.496 16.496 0 0 0-7.713-6.843c-7.632-3.268-17.506-.964-23.669 4.397-2.105 1.833-4.234 4.526-4.878 7.423a1.08 1.08 0 0 0-.523.279c-4.452-2.805-9.038-5.503-12.626-9.39-2.605-2.825-4.418-6.168-5.528-9.841-.09-.302-.578-.258-.563.077l.013.234c-.047-.144-.266-.07-.283.07-.597 4.462-1.344 9.193-.656 13.679.411 2.676 1.627 4.635 3.251 6.751 1.741 2.268 3.711 4.377 5.726 6.4 1.279 1.284 2.614 2.765 4.18 3.707 1.821 1.094 3.886 1.925 5.83 2.769a75.43 75.43 0 0 0 6.027 2.347c4.087 1.384 8.311 2.34 12.609 2.759 3.441.334 7.374.698 10.672-.597 2.527-.992 4.568-2.786 6.186-4.944 1.762-2.351 3.154-5.029 3.924-7.852.8-2.933-.464-8.052-.633-8.524" clip-rule="evenodd"></path></svg>