<svg xmlns="http://www.w3.org/2000/svg" width="240" height="324" fill="none" id="laughing-man"><path fill="#fff" fill-rule="evenodd" d="M194.636 251.935a497.907 497.907 0 0 1-2.341-14.47 388.48 388.48 0 0 1-.961-6.894c-.207-1.612-.522-3.455.575-4.649 1.543-1.681 2.944-3.12 3.133-5.527.178-2.265-.588-4.734-1.067-6.933-1.004-4.611-2.253-9.164-3.634-13.675-1.403-4.583-2.942-9.122-4.503-13.653-1.459-4.237-2.861-8.511-4.762-12.576-3.606-7.713-9.707-13.425-17.248-17.239-1.875-.949-5.701-4.335-7.66-5.093-1.801-.697-1.795 1.338-3.567.572-1.418-.613-2.737-1.431-3.531-2.799-.861-1.487-3.022-3.566-3.351-5.296-.697-3.667.058-6.788-2.558-9.548-2.323-2.451-5.445-4.131-8.675-5.032-7.106-1.983-16.583-.597-20.871 6.009-2.047 3.155-2.763 6.968-5.526 9.543-2.413 2.248-1.873 3.784-4.998 4.943-.177.066-4.975-.964-5.152-.898-3.418-.732-6.686 1.317-9.822 2.506-4.676 1.772-9.128 4.079-13.31 6.82-8.434 5.528-15.657 12.706-21.613 20.829-6.004 8.19-10.662 17.369-13.98 26.963-.805 2.33-1.529 4.689-2.167 7.071-.357 1.333-.739 2.715-.304 4.08.356 1.116 1.147 1.948 2.077 2.618 1.26.908 3.786 1.498 3.737 3.324-.037 1.389-.508 2.85-.738 4.223-.274 1.634-.499 3.278-.723 4.919-1.023 7.471-1.819 14.985-2.17 22.519-.347 7.419-.635 14.99-.12 22.406.034.489.18.938.415 1.318-.22.084-.237.493.036.551l.574.122c.398.301.894.485 1.464.503.387.012.774.03 1.16.05 4.078.852 8.155 1.658 12.286 2.268a306.68 306.68 0 0 0 15.11 1.837c10.38 1.009 20.679.675 31.073.131a397.275 397.275 0 0 1 31.14-.401c10.398.271 20.792.724 31.193.909 11.619.206 23.221-.111 34.807-1.035 1.588-.127 2.571-1.391 2.258-2.969-1.877-9.457-4.004-18.85-5.686-28.347Z" clip-rule="evenodd"></path><path fill="#000" fill-rule="evenodd" d="M94.698 148.487c1.074-.047 2.17.127 3.242.233.093.009.129.153.023.175-1.918.401-3.816.949-5.7 1.506l-.807.239c-2.124.629-4.187 1.278-6.244 2.116-4.099 1.672-7.993 3.928-11.576 6.519-13.798 9.981-23.785 25.091-30.087 40.735a111.212 111.212 0 0 0-5.145 16.274c-.075.318-.401 1.133-.222 1.458.158.288.772.466 1.057.615l.964.5c1.88.969 5.01 2.562 5.325 2.718l.49.241c8.009 3.928 16.566 7.259 25.58 7.489l.07-.77c.402-4.257.93-8.536 2.08-12.662.062-.222.344-.147.37.05.641 4.885.436 9.807.212 14.714-.396 8.691-.922 17.378-1.39 26.065-.233 4.346-.536 8.69-.81 13.033-.273 4.353-.361 8.809-.986 13.126-.14.962-1.266 1.485-2.119 1.384-.944-.113-1.67-.944-1.674-1.898-.012-2.514.304-5.059.48-7.567.166-2.383.345-4.765.529-7.147.67-8.693 1.44-17.376 2.154-26.065.253-3.082.526-6.161.806-9.24-9.547-.308-18.467-3.846-26.977-7.979-.123 2.797-.42 5.59-.708 8.376-.804 7.775-1.513 15.546-2.043 23.345a476.537 476.537 0 0 0-.633 11.827 360.622 360.622 0 0 0-.251 7.757l-.03 1.481c-.023.938-.118 1.808-.908 2.491-.801.694-1.884.731-2.678 0-1.062-.979-.874-2.312-.843-3.626a353.812 353.812 0 0 1 .375-9.972c.399-7.743 1.195-15.455 2.235-23.136l.407-2.965c.758-5.512 1.59-11.15 3.286-16.459a349.5 349.5 0 0 1-1.974-.992c-1.163-.589-2.366-1.142-3.497-1.792-.897-.516-1.67-1.224-1.92-2.268-.279-1.164.147-2.436.43-3.571l.025-.1c.277-1.143.576-2.281.891-3.414a112.64 112.64 0 0 1 4.709-13.494c3.703-8.799 8.483-17.158 14.323-24.716 5.256-6.804 11.465-12.973 18.742-17.601 3.558-2.262 7.35-4.12 11.359-5.433 1.874-.614 3.913-1.148 5.876-1.367a46.38 46.38 0 0 1 3.181-.233Zm19.038-13.943c1.276-1.371 3.813.048 3.2 1.864-1.442 4.274-3.738 8.172-7.322 10.98-3.369 2.639-7.386 4.354-11.713 3.988a.259.259 0 0 1-.088-.024l.373.506c2.927 3.961 6.015 7.867 9.737 11.105 7.583 6.596 17.908 10.154 27.877 7.623 7.844-1.991 14.755-8.196 16.787-16.104a1.61 1.61 0 0 1-1.017.093c-1.627-.353-3.236-2.064-4.285-3.291a15.563 15.563 0 0 1-2.67-4.38c-1.189-2.964-1.57-6.781.053-9.652.2-.354.662-.156.701.19l.062.539c.313 2.691.703 5.294 1.971 7.748.621 1.2 1.365 2.372 2.271 3.377a13.18 13.18 0 0 0 1.577 1.503c.553.44 1.222.757 1.717 1.262l.091.096.003-.017c.125-1.065.872-1.535 1.603-1.505.707.028 1.537.34 1.859.489l.031.014c4.933 2.369 9.477 5.457 13.753 8.883 8.843 7.086 15.468 16.348 18.678 27.255 1.576 5.354 2.48 10.87 3.435 16.36l.587 3.364c.891 5.069 1.886 10.237 3.897 14.952.52 1.219.119 2.363-1.156 2.843a308.712 308.712 0 0 1-4.792 1.751c.786 3.374 1.265 6.865 1.854 10.255 1.252 7.207 2.786 14.368 4.101 21.565.673 3.68 1.28 7.373 1.951 11.053.324 1.772.661 3.542.99 5.314.177.955.337 1.913.506 2.87l.029.159c.097.504.218 1.026.08 1.531-.159.576-.608.983-1.009 1.396-.33.34-.808.342-1.212.157l-.133-.062c-.723-.338-1.289-.675-1.545-1.491-.163-.516-.221-1.098-.327-1.63a143.76 143.76 0 0 1-.579-3.064 752.56 752.56 0 0 1-1.067-6.151l-.324-1.921c-1.114-6.622-2.171-13.283-2.706-19.975-.237-2.968-.488-5.934-.742-8.901l-.19-2.225c-.241-2.816-.535-5.703-.577-8.558l-.957.34-4.672 1.652c-1.158.41-2.632 1.249-3.879 1.096-.61-.075-1.075-.267-1.434-.616a318.81 318.81 0 0 0 1.788 18.166c.706 5.488 1.489 10.969 2.413 16.424.458 2.702.929 5.401 1.44 8.092.255 1.347.519 2.691.79 4.034.136.67.297 1.34.403 2.016.121.773-.092 1.249-.524 1.886-.355.522-1.065.791-1.64.43-.762-.478-1.159-.893-1.384-1.764-.203-.791-.327-1.617-.485-2.418-.291-1.479-.572-2.96-.843-4.442a291.103 291.103 0 0 1-1.558-9.328c-1.647-10.983-2.692-22.059-3.22-33.153a294.154 294.154 0 0 1-.295-16.43c.024-2.809.116-5.625.314-8.426.201-2.836.62-5.615.993-8.424.013-.099.153-.104.159 0 .176 3.149.454 6.294.589 9.451.13 3.012.187 6.029.29 9.043.136 3.961.323 7.925.572 11.885.45-.492 1.129-.777 1.808-.666.984-.206 2.042-.722 2.98-1.036l3.536-1.181a478.871 478.871 0 0 1 5.582-1.836c-1.668-5.612-2.81-11.308-3.785-17.086l-.435-2.599c-.862-5.116-1.79-10.234-3.35-15.188a48.564 48.564 0 0 0-7.348-14.435c-3.208-4.321-7.112-8.126-11.131-11.685-3.441-3.047-7.122-5.798-10.632-8.761.037.196.045.412.013.65-.747 5.463-3.595 10.551-7.566 14.335-7.976 7.603-19.783 9.18-29.992 5.615-9.876-3.448-18.607-11.615-21.691-21.722-.053-.172.178-.241.271-.114.171.235.343.469.516.704a.225.225 0 0 1 .151-.239c3.6-1.391 7.134-3.362 9.832-6.151a21.177 21.177 0 0 0 3.368-4.562c.434-.795.824-1.619 1.135-2.471l.079-.22c.377-1.067.692-2.155 1.479-3Z" clip-rule="evenodd"></path><path fill="#fff" fill-rule="evenodd" d="M92.953 59.685c1.095-1.176 2.497-2.052 4.028-2.332-1.4.7-2.769 1.43-4.028 2.332Zm-2.147 10.142a16.319 16.319 0 0 1-.364-2.706c.244.372.635.62 1.075.75-.284.635-.525 1.29-.71 1.956Zm73.315 14.053c-1.265-5.266-7.165-15.395-8.56-17.345-1.514-4.827 6.745-8.699 2.253-12.474-2.033-1.703-4.721-2.306-7.242-2.91-17.457-4.194-36.213-2.079-52.404 5.634-2.463-.519-5.029.494-6.82 2.274-8.413 8.46 3.053 23.724 5.56 33.261 4.302 10.635-4.56 12.424-3.609 21.422.738 4.648 5.445 5.877 9.417 6.579.636.149 1.487.172 1.692.845.644 3.929 2.85 7.673 5.812 10.215-.259.767-.062 1.699.852 2.373 8.275 6.152 18.709 9.231 29.029 8.677 12.3-.659 18.661-7.712 20.196-9.528 8.486-11.465 7.472-26.592 5.741-40.255-1.206-9.519.323.561-1.917-8.768Z" clip-rule="evenodd"></path><path fill="#000" fill-rule="evenodd" d="M126.195 40.06c.387-1.21 1.481-1.937 2.734-1.787 1.109.131 2.296 1.233 2.161 2.448a7.886 7.886 0 0 1-.099.661l.005.002h.005l-.027.08a4.191 4.191 0 0 1-.366 1.062c-.215.627-.422 1.257-.627 1.89.296-.013.598.004.904.06.317-.811.636-1.62.953-2.434.34-.869.579-1.985 1.251-2.657.859-.858 2.351-1.035 3.399-.423 1.107.647 1.502 1.797 1.261 3.03-.122.628-.542 1.065-1.061 1.34l-.056.029-.4.947a3.149 3.149 0 0 1 1.021-.262 45.51 45.51 0 0 1 1.846-3.023c.746-1.133 2.204-1.615 3.427-.898 1.094.64 1.682 2.323.898 3.428-.596.839-1.16 1.695-1.716 2.56.095.016.19.037.281.065.043-.057.087-.114.133-.171.607-.753 1.312-1.317 2.037-1.943.678-.587.991-1.51 1.882-1.957 1.122-.56 2.474-.291 3.142.825 1.432 2.39-.972 4.136-2.51 5.584a37.787 37.787 0 0 1 4.158-2.258 35.59 35.59 0 0 1 2.446-1.035c1.228-.457 2.221-.31 3.229.539.45.38.673 1.21.466 1.764-.401 1.061-1.035 1.706-2.146 2.012-.782.216-1.582.362-2.364.588-1.31.376-2.582.835-3.816 1.407.089.056.174.115.252.182a34.791 34.791 0 0 1 2.801-.775 36.04 36.04 0 0 1 4.751-.77l.531-.049c1.915-.184 4.218-.523 5.394 1.311.386.604.428 1.602 0 2.2-.82 1.15-1.636 1.378-2.992 1.4a84.686 84.686 0 0 1 6.735.995l.454.089c1.11.221 2.348.35 3.3.993 2.079 1.403 1.103 4.136-1.2 4.428-1.113.14-2.349-.332-3.441-.552a71.16 71.16 0 0 0-3.195-.566 55.179 55.179 0 0 0-1.662-.233c1.13.163 2.252.393 3.344.719l.304.091c2.111.644 4.961 1.67 5.62 3.927.399 1.371-.693 2.567-2.015 2.648-1.23.074-2.255-.66-3.298-1.2a13.985 13.985 0 0 0-2.354-.94 26.99 26.99 0 0 0-2.581-.65c.735.405 1.452.851 2.139 1.35l.316.233c1.828 1.362 4.615 3.472 3.971 6.026-.203.805-1.1 1.574-1.962 1.492-2.244-.21-3.482-2.6-5.174-3.88a21.352 21.352 0 0 0-1.433-.986c2.565 3.06 4.606 6.599 6.159 10.253 3.412 8.04 4.459 15.484 4.484 24.128l.001.268c.004 4.768-.104 9.623-.568 14.37-.431 4.385-1.221 8.714-3.21 12.685-3.331 6.66-9.823 11.846-16.983 13.82-7.967 2.198-16.872.48-23.398-4.592-1.665-1.294.543-4.102 2.243-2.908 6.793 4.765 15.577 6.275 23.373 3.049 6.184-2.557 11.163-8.058 13.274-14.393 1.343-4.029 1.734-8.326 2.214-12.526l.032-.279c.507-4.392.8-8.814.796-13.235-.006-8.211-1.185-14.97-4.796-22.418a39.496 39.496 0 0 0-6.534-9.6c-.799.163-1.648-.065-2.455-.152a80.787 80.787 0 0 0-1.236-.124c.421.272.834.555 1.239.845l.532.383c1.666 1.193 3.778 2.552 3.35 4.858-.116.624-.737 1.197-1.339 1.338-2.183.52-3.683-1.602-5.157-2.861-1.283-1.095-2.624-2.076-3.991-3.059-.311-.222-.623-.444-.938-.663.296.345.583.695.864 1.049l.415.526c1.255 1.571 3.065 3.614 1.947 5.65-.317.576-.993.958-1.648.946-2.252-.047-3.148-2.604-4.204-4.219-.909-1.384-1.895-2.688-2.916-3.992-.281-.358-.564-.715-.851-1.072-4.73.245-9.444.87-14.075 1.87-3.181.687-6.31 1.577-9.416 2.552l-.258.082c-1.681.541-3.413 1.234-4.624 2.422-.173.819-.041 1.682.125 2.5l.129.625c.531 2.617.893 5.185.622 7.871-.281 2.771-1.115 5.263-2.133 7.837-.482 1.214-.981.994-1.152 2.296-.131.991-.05 2.015.04 3.015l.075.848c.187 2.22.282 4.642-1.173 6.474-.226.281-.71.169-.871-.112a3.613 3.613 0 0 0-.205-.324c-.701-1.016-1.776-1.595-3.006-1.819-.156-.028-.095-.237.036-.254a4.31 4.31 0 0 1 2.861.674c-.397-1.372-3.469-.705-4.478-.438l-.035.009c-1.26.338-2.45.888-3.5 1.666-2.114 1.564-3.335 4.003-3.273 6.63.06 2.582 1.394 4.969 3.684 6.205a7.48 7.48 0 0 0 3.613.871c1.305-.013 2.467-.586 3.775-.505.756.046 1.335.858.898 1.566a3.581 3.581 0 0 1-1.111 1.13 37.174 37.174 0 0 0 4.014 7.002 23.042 23.042 0 0 0 2.949 3.338c.849.794 2.69 1.714 2.586 3.039-.036.478-.283.769-.718.947-1.353.553-2.999-1.352-3.904-2.271l-.072-.073a25.253 25.253 0 0 1-3.053-3.686c-1.589-2.342-2.575-4.982-2.983-7.754-2.17.653-5.043.04-6.814-.761-5.564-2.515-7.383-10.012-4.001-15.004a9.765 9.765 0 0 1 2.408-2.46 2.271 2.271 0 0 1-.568-.438c-.947-1.006-1.616-2.318-2.28-3.528l-.08-.145a58.401 58.401 0 0 1-1.667-3.246l-.194-.413c-1.164-2.504-2.184-3.599-3.015-6.232a52.877 52.877 0 0 1-1.836-7.763l-.108-.697c-.236-1.528-.459-3.162-.287-4.714-1.185.387-2.376.626-3.55.045-.772-.383-1.2-1.499-.935-2.3.192-.59.513-1.052.921-1.416a3.342 3.342 0 0 1-.672-.452l-.175-.152c-.71-.617-.76-1.79-.33-2.564.043-.074.085-.15.125-.224.41-.733 1.257-1.213 2.094-1.2.135.002.27.002.407 0a3.623 3.623 0 0 1-1.136-.444c-1.64-1.008-1.433-3.741.551-4.223.833-.2 1.752-.118 2.669.097-.034-.019-.068-.038-.102-.059-.693-.425-1.274-1.255-1.208-2.107.072-.943.376-1.615 1.208-2.11.723-.426 1.745-.467 2.463 0 .624.408 1.234.859 1.822 1.343-.59-.725-1.101-1.514-1.308-2.35-.256-1.043.171-2.178 1.11-2.727.747-.438 1.537-.389 2.243-.05a2.38 2.38 0 0 1 .458-1.6c.744-1.015 2.096-1.599 3.273-.859.154.098.361.265.562.47-.391-1.245-.038-2.551 1.295-3.114.813-.344 1.914-.17 2.62.423-.448-2.424 3.128-4.206 4.518-1.701.316.567.628 1.164.907 1.776l.103.23.011-.005-.071-.168-.073-.168c-.386-.898-.879-1.832-1.014-2.807-.198-1.441.444-2.808 2.011-3.02.81-.11 1.71.258 2.253.9-.294-2.236 2.203-3.86 4.001-2.191.851.79 1.306 1.946 1.846 2.96.307.574.619 1.144.926 1.72.078-.094.162-.187.251-.278a38.228 38.228 0 0 1-1.105-4.16c-.283-1.322.378-2.696 1.743-3.07 1.24-.343 2.793.423 3.07 1.744.194.93.425 1.85.678 2.764a4.5 4.5 0 0 1 .513-.093c.015-.172.031-.345.048-.517l.067-.611c.148-1.397.297-2.992 1.026-4.179 1.245-2.029 4.435-1.188 4.469 1.211.019 1.24-.486 2.47-.662 3.699-.076.534-.12 1.075-.145 1.616.34-1.796.807-3.57 1.347-5.315.064-.21.131-.418.197-.628Zm-27.523 69.276c2.799-.433 5.357 1.128 7.016 3.316.302.399.103.964-.169 1.3-.197.247-.461.277-.759.315-.342.044-.775-.233-.925-.531-1.067-2.13-2.97-3.477-5.163-4.305-.04-.015-.053-.087 0-.095Zm3.879-38.171.085-.091c.566-.588-.329-1.486-.897-.897-.597.62-.995 1.374-1.377 2.137-.364.728.729 1.37 1.095.64l.166-.332c.262-.516.54-1.026.928-1.457Zm-7.86-1.206c.802-.136.462-1.358-.338-1.223-1.035.175-2.067.373-3.103.548-.802.135-.462 1.357.338 1.223 1.035-.175 2.067-.374 3.103-.548Zm47.823-8.345c-.775-.259-1.108.966-.337 1.223 1.066.356 2.123.72 3.135 1.214.73.357 1.373-.736.639-1.095-1.109-.542-2.267-.951-3.437-1.342Zm-48.007-1.643c-.757-.303-1.086.923-.337 1.223l2.738 1.095c.758.303 1.087-.923.337-1.223l-2.738-1.095Zm57.568-2.978-.1-.063c-.687-.445-1.323.653-.64 1.095.401.26.888.436 1.255.746l.077.068c.593.56 1.491-.334.896-.896-.435-.411-.985-.64-1.488-.95Z" clip-rule="evenodd"></path><path fill="#000" fill-rule="evenodd" d="M131.046 122.856c2.587-3.007 6.944-3.217 10.554-2.465 2.316.483 4.571 1.287 6.924 1.585 1.099.139 2.209.181 3.316.161 1.087-.021 2.176-.24 3.26-.199.166.006.229.225.085.314-1.487.913-3.489 1.206-5.244 1.385.005.13.013.257.031.364.048.287.092.572.127.861.08.651.169 1.3.258 1.95.175 1.279.23 2.598.538 3.855l.054.209c.072.264.088.502.064.717l.071-.032.226-.11.148-.069c.539-.251 1.054-.433 1.689-.372.483.046.888.375.891.891.012 2.316-3.107 3.06-4.891 3.504l-.523.128c-2.272.555-4.59 1.04-6.926 1.157-3.748.186-7.96-.849-10.412-3.89-2.288-2.838-2.707-7.076-.24-9.944Zm17.021 9.728c-.393-3.485-4.675-3.677-5.907-1.467-.547-3.081-8.633-.266-8.001.347 2.397 2.322 6.034 2.531 9.16 2.101 1.593-.219 3.186-.575 4.748-.981Zm-4.752-9.136-1.076-.155-.424-.059c-2.669-.357-5.67-.542-7.865 1.17a3.79 3.79 0 0 0-1.42 2.315c2.076-.308 4.16-.543 6.25-.738l.57-.053c1.308-.118 2.615-.242 3.922-.372l.928-.094.928-.097c.327-.034 2.528-.147 2.942-.071.044-.372.102-1.177.195-1.539-1.564.053-3.121-.063-4.675-.27l-.275-.037Zm4.956-15.581c1.595.97 4.026 3.232 2.31 5.637-2.02 2.121-4.929-.311-6.362-1.41-1.329-.853-2.822 1.339-1.589 2.334 10.357 7.671 14.56-6.307 6.448-7.702-.893-.153-1.225.841-.807 1.141Zm2.855 4.087.077-.042.025-.016c.045-.029.017-.026-.085.01l-.077.027v.054c.02-.012.041-.021.06-.033Zm-20.432-8.619v-.048c.003-1.347.787-4.425 2.727-4.425 1.211 0 1.947 2.095 2.074 4.253l.005.088c.056 1.343-.312 4.276-2.079 4.276-1.786 0-2.709-2.778-2.727-4.144Zm28.554-.423v-.047c-.003-1.348-.787-4.425-2.727-4.425-1.181 0-1.91 1.991-2.064 4.091l-.01.162c-.077 1.297.267 4.364 2.074 4.364 1.786 0 2.709-2.779 2.727-4.145ZM131.8 89.673c1.583-.24 3.679.217 4.417 1.827.329.717-.06 1.51-.889 1.55-2.003.096-3.8-.35-5.558.953-.756.561-1.393 1.338-1.926 2.112l-.202.295-.168.243c-.362.533-.705 1.112-.652 1.755.016.19-.179.372-.363.364-1.153-.047-1.277-1.493-1.125-2.36.282-1.612 1.061-3.124 2.141-4.342 1.135-1.279 2.632-2.139 4.325-2.397Zm21.801 1.956c1.092-.702 2.488-.972 3.766-.869 2.521.203 6.751 2.347 6.194 5.428-.172.95-1.493 1.451-2.271.924-.837-.567-1.04-1.447-1.663-2.188-.497-.592-1.127-1.02-1.801-1.384a5.971 5.971 0 0 0-2.188-.657l-.126-.012c-.454-.039-2.747-.028-2.41.828.066.168-.183.3-.298.173-.703-.777.093-1.79.797-2.243Z" clip-rule="evenodd"></path></svg>